<?xml version="1.0" encoding="UTF-8" standalone="no"?>
<svg
   version="1.1"
   viewBox="0 0 165.92127 192"
   fill="none"
   stroke="none"
   stroke-linecap="square"
   stroke-miterlimit="10"
   id="svg9"
   sodipodi:docname="TrialEmulation-v3.svg"
   width="43.900002mm"
   height="50.799999mm"
   inkscape:version="1.3.2 (091e20e, 2023-11-25)"
   inkscape:export-filename="TrialEmulation-v3.png"
   inkscape:export-xdpi="600"
   inkscape:export-ydpi="600"
   xmlns:inkscape="http://www.inkscape.org/namespaces/inkscape"
   xmlns:sodipodi="http://sodipodi.sourceforge.net/DTD/sodipodi-0.dtd"
   xmlns="http://www.w3.org/2000/svg"
   xmlns:svg="http://www.w3.org/2000/svg">
  <defs
     id="defs9">
    <rect
       x="209.81864"
       y="16.38497"
       width="125.16296"
       height="71.001535"
       id="rect5" />
  </defs>
  <sodipodi:namedview
     id="namedview9"
     pagecolor="#ffffff"
     bordercolor="#000000"
     borderopacity="0.25"
     inkscape:showpageshadow="2"
     inkscape:pageopacity="0.0"
     inkscape:pagecheckerboard="true"
     inkscape:deskcolor="#d1d1d1"
     inkscape:zoom="3.564186"
     inkscape:cx="129.48258"
     inkscape:cy="94.972596"
     inkscape:window-width="1840"
     inkscape:window-height="988"
     inkscape:window-x="715"
     inkscape:window-y="383"
     inkscape:window-maximized="0"
     inkscape:current-layer="svg9"
     inkscape:document-units="mm" />
  <clipPath
     id="p.0">
    <path
       d="M 0,0 H 960 V 540 H 0 Z"
       clip-rule="nonzero"
       id="path1" />
  </clipPath>
  <path
     sodipodi:type="star"
     style="display:inline;fill:#ffffff;stroke:#4d4d4d;stroke-width:5.01239;stroke-linejoin:round;stroke-dasharray:none;stroke-opacity:1"
     id="path2"
     inkscape:flatsided="true"
     sodipodi:sides="6"
     sodipodi:cx="0"
     sodipodi:cy="0.91027611"
     sodipodi:r1="123.46327"
     sodipodi:r2="106.92233"
     sodipodi:arg1="0.52359878"
     sodipodi:arg2="1.0471976"
     inkscape:rounded="0"
     inkscape:randomized="0"
     d="M 106.92233,62.641914 -5.4344844e-7,124.37355 -106.92233,62.641913 l 0,-123.463274 L 5.4344842e-7,-122.553 106.92233,-60.82136 Z"
     transform="matrix(0.7603712,0,0,0.7603712,82.960634,95.307852)"
     inkscape:label="hexagon" />
  <path
     style="fill:#000000;stroke-width:1.85271"
     d="m 117.6776,148.91944 c -0.12432,-0.62146 -0.39616,-0.75793 -0.57604,-0.28915 -0.061,0.15895 -0.23177,0.28915 -0.37945,0.28915 -0.4407,0 -0.34167,-1.39095 0.13543,-1.90315 0.60517,-0.6496 1.1789,-0.7956 3.12641,-0.7956 1.71182,0 3.69631,-0.30911 4.81948,-0.75071 0.93618,-0.36809 1.8662,-1.19142 1.8662,-1.65213 0,-0.23619 0.12617,-0.68247 0.28052,-0.99176 0.23511,-0.4713 0.24988,-1.04945 0.0914,-3.57185 -0.25519,-4.0589 -0.61898,-5.83321 -2.44492,-11.92472 -0.58794,-1.96139 -1.49479,-4.99748 -2.01522,-6.74685 -1.68083,-5.64985 -2.97995,-9.0255 -3.70514,-9.62738 -0.16415,-0.13618 -0.73534,-0.83706 -1.26931,-1.55739 -1.13911,-1.53666 -1.65873,-2.9915 -1.32788,-3.71772 0.51585,-1.13219 -2.09114,-6.526541 -4.90259,-10.144401 -2.27795,-2.93133 -2.73085,-3.458565 -2.9223,-3.402074 -0.10599,0.03132 -0.38331,-0.01356 -0.61621,-0.09957 -0.33559,-0.123967 -0.44959,-0.07421 -0.54924,0.239858 -0.0915,0.288346 -0.18361,0.338486 -0.33794,0.184106 -0.30937,-0.309393 -0.47885,-0.261772 -0.61693,0.17335 -0.17138,0.54016 -0.48189,0.48113 -0.48189,-0.0916 0,-0.429301 -0.0484,-0.458774 -0.48192,-0.293917 -0.35127,0.133567 -0.48268,0.119217 -0.48483,-0.05294 -0.001,-0.129903 -0.0884,-0.366302 -0.19275,-0.525327 -0.16879,-0.257025 -0.2109,-0.257025 -0.37963,0 -0.13227,0.201633 -0.19797,0.216217 -0.21683,0.04815 -0.0149,-0.132521 -0.0487,-0.327703 -0.0753,-0.43372 -0.0265,-0.105993 -0.0617,-0.301199 -0.0784,-0.433731 -0.0167,-0.132521 -0.161,-0.414029 -0.32085,-0.625548 -0.24905,-0.329585 -0.31631,-0.343375 -0.47034,-0.09641 -0.15173,0.243376 -0.22758,0.220237 -0.48746,-0.14873 -0.36684,-0.52084 -0.66688,-0.40073 -0.66688,0.266935 0,0.339518 -0.0712,0.436221 -0.24095,0.327248 -0.13247,-0.08508 -0.4433,-0.159365 -0.69064,-0.165126 -0.41865,-0.0093 -0.44524,0.05329 -0.38551,0.914477 0.0702,1.011839 -0.0517,1.140789 -0.48874,0.516866 -0.27778,-0.396604 -0.29219,-0.386017 -0.52293,0.384159 -0.17582,0.587074 -0.29799,0.741604 -0.47195,0.597234 -0.30038,-0.24931 -0.74072,0.39523 -1.06874,1.56431 -0.22097,0.78753 -0.24905,0.81459 -0.38202,0.36811 -0.0789,-0.26506 -0.15211,-0.80722 -0.16266,-1.20479 -0.0282,-1.06124 -0.34659,-0.88058 -0.50958,0.28915 -0.12413,0.89025 -0.16452,0.95983 -0.33668,0.5783 -0.10763,-0.23855 -0.26915,-0.43373 -0.35896,-0.43373 -0.0899,0 -0.16322,-0.1786 -0.16322,-0.39691 0,-0.2183 -0.0867,-0.34331 -0.19275,-0.27778 -0.10599,0.0656 -0.19276,0.24413 -0.19276,0.39692 0,0.15277 -0.17341,0.45126 -0.38552,0.6633 l -0.38551,0.38554 -0.0212,-1.10842 -0.0212,-1.10841 -0.16619,0.84588 c -0.17453,0.8889 -0.3699,1.27351 -0.3699,0.72839 0,-0.42517 -0.33324,-0.41314 -0.44538,0.0161 -0.0485,0.18554 -0.0982,-0.29878 -0.11043,-1.07628 -0.0244,-1.540278 -0.34399,-1.820652 -0.67865,-0.59532 -0.22965,0.84083 -0.28756,0.9036 -0.51426,0.5576 -0.1586,-0.24197 -0.21688,-0.23068 -0.39756,0.0769 -0.16434,0.27962 -0.24674,0.30387 -0.36772,0.10809 -0.11067,-0.17906 -0.25447,-0.0458 -0.49506,0.45879 -0.33535,0.70326 -0.8187,1.0253 -0.56108,0.37382 0.25133,-0.63558 0.3448,-1.59033 0.15562,-1.59033 -0.35985,0 -0.80503,0.68576 -1.00299,1.54498 -0.29083,1.26219 -0.25177,4.8287 0.0815,7.449851 0.60249,4.73781 0.67406,5.38523 0.67381,6.09538 -3.5e-4,1.05574 -0.37302,1.78349 -1.766689,3.45003 -0.680881,0.8142 -1.361985,1.72503 -1.513566,2.02405 -0.151558,0.29903 -0.591448,1.02079 -0.9775,1.60392 -0.38604,0.58311 -1.239223,2.23127 -1.895938,3.66256 -0.656703,1.4313 -1.412832,2.99271 -1.68027,3.4698 -0.267449,0.47711 -0.706088,1.38793 -0.974753,2.02407 -0.268676,0.63613 -1.337305,2.8915 -2.374731,5.01195 -3.959786,8.09358 -5.058279,10.46265 -5.610276,12.09921 -0.313479,0.92937 -0.826717,2.24459 -1.140566,2.92267 -0.313832,0.67809 -0.570618,1.35556 -0.570618,1.50545 0,0.14989 -0.220362,0.4796 -0.489709,0.73264 -0.414933,0.38983 -0.731339,0.47193 -2.07213,0.53768 -2.694807,0.13209 -3.070222,0.12339 -4.95569,-0.11487 -3.175679,-0.40135 -6.051831,-0.31018 -6.387616,0.20251 -0.175082,0.26732 -0.597852,-0.0415 -0.479389,-0.3501 0.06244,-0.16303 -0.09115,-0.29388 -0.420566,-0.35836 -0.910368,-0.17824 -3.208454,-0.20694 -3.471446,-0.0434 -0.359742,0.2237 -0.486986,0.0234 -0.344864,-0.543 0.06725,-0.26806 0.365206,-0.613 0.662085,-0.76651 0.524262,-0.27113 3.730011,-0.83487 7.261318,-1.27694 0.954147,-0.11949 2.255251,-0.33907 2.891344,-0.4881 0.636109,-0.14897 1.373063,-0.29379 1.637686,-0.32169 0.342808,-0.0361 0.578287,-0.25753 0.818973,-0.76989 0.211784,-0.4508 0.514202,-0.76341 0.810469,-0.83777 0.33788,-0.0848 0.639686,-0.45683 1.058659,-1.30493 0.322316,-0.65244 0.868718,-1.54559 1.214231,-1.98481 1.854509,-2.35727 5.440416,-9.1565 7.864585,-14.91198 0.334913,-0.79516 1.566283,-3.38646 2.736382,-5.75847 l 2.127429,-4.3127 -0.09746,-2.55196 c -0.07561,-1.98165 -0.03447,-2.69793 0.184162,-3.2052 0.421379,-0.97751 0.792882,-8.954181 0.455001,-9.769911 -0.319874,-0.77232 -1.147195,-1.35428 -1.387053,-0.97573 -0.128758,0.20336 -0.166189,0.18647 -0.168596,-0.076 -0.0035,-0.4471 -0.170817,-0.42543 -0.741919,0.0963 l -0.474679,0.43372 0.143026,-0.4819 c 0.296677,-1.00008 0.341937,-1.54214 0.12877,-1.54214 -0.118018,0 -0.21464,0.10331 -0.21464,0.22961 0,0.12628 -0.116908,0.0696 -0.259899,-0.12584 -0.143027,-0.19548 -0.355446,-0.29638 -0.472226,-0.22421 -0.117271,0.0726 -0.314591,-0.0652 -0.440872,-0.30788 -0.125614,-0.24152 -0.255704,-0.47082 -0.288905,-0.50956 -0.03319,-0.0388 -0.278948,0.17812 -0.54607,0.48191 -0.38375,0.43643 -0.486962,0.48155 -0.491789,0.21501 -0.0035,-0.18554 -0.09279,-0.33734 -0.198851,-0.33734 -0.105993,0 -0.192751,-0.12719 -0.192751,-0.28265 0,-0.22636 -0.134321,-0.20339 -0.674654,0.11546 -0.580726,0.34266 -0.674641,0.35517 -0.674641,0.0899 0,-0.16951 -0.13006,-0.30819 -0.289134,-0.30819 -0.158962,0 -0.289134,-0.0969 -0.289134,-0.21524 0,-0.1262 -0.201316,-0.17674 -0.48669,-0.1222 -0.4,0.0764 -0.467123,0.0313 -0.376804,-0.25323 0.09967,-0.31406 0.05244,-0.3251 -0.507217,-0.11876 -0.460769,0.16986 -0.636241,0.17164 -0.692618,0.007 -0.0415,-0.12128 -0.253692,-0.17389 -0.471496,-0.11692 -0.227421,0.0595 -0.469645,-0.0105 -0.569025,-0.16505 -0.146364,-0.22712 -0.202334,-0.22395 -0.362835,0.0206 -0.151366,0.23061 -0.190996,0.19158 -0.195702,-0.19278 -0.0037,-0.371756 -0.04669,-0.417309 -0.184715,-0.199292 -0.14303,0.226252 -0.21938,0.175712 -0.382567,-0.253507 -0.112094,-0.294865 -0.205744,-0.769031 -0.208115,-1.053682 l -0.0037,-0.517568 -0.376934,0.481925 -0.376953,0.481914 -0.0037,-0.553714 c -0.0037,-0.49305 -0.03928,-0.524731 -0.323039,-0.28915 -0.175266,0.145516 -0.367116,0.236458 -0.42618,0.2021 -0.0591,-0.03436 -0.162483,0.09442 -0.229681,0.286089 -0.09542,0.272077 -0.17508,0.188159 -0.363521,-0.38257 -0.222436,-0.673998 -0.261918,-0.703868 -0.505604,-0.382464 -0.242854,0.320329 -0.264901,0.301678 -0.271423,-0.229668 l -0.0074,-0.578289 -0.473998,0.578289 -0.474017,0.578313 -0.0074,-0.658632 c -0.0074,-0.712212 -0.160445,-0.720509 -0.296064,-0.01613 -0.102826,0.533625 -0.289134,0.754914 -0.289134,0.343316 0,-0.164576 -0.115611,-0.521985 -0.256786,-0.794237 -0.239741,-0.462118 -0.278147,-0.47364 -0.578288,-0.173481 -0.30012,0.300147 -0.321463,0.293906 -0.321463,-0.09396 0,-0.645262 -0.363336,-0.714152 -0.593165,-0.112421 l -0.206911,0.5417 -0.234201,-0.435578 c -0.172672,-0.321275 -0.290821,-0.378982 -0.449895,-0.219886 -0.159148,0.159095 -0.207632,0.04581 -0.185085,-0.431862 0.02724,-0.574947 -0.02279,-0.644585 -0.445689,-0.620955 -0.262029,0.01461 -0.584549,-0.11546 -0.716722,-0.289151 -0.172487,-0.226606 -0.24202,-0.2432 -0.246411,-0.05878 -0.0037,0.141356 -0.1145,0.218145 -0.247077,0.170618 -0.132469,-0.04756 -0.383456,-0.01332 -0.55763,0.07608 -0.257379,0.132019 -0.341436,0.03038 -0.448968,-0.542821 -0.101903,-0.543137 -0.176563,-0.641862 -0.324465,-0.429455 -0.147476,0.211742 -0.214952,0.21956 -0.290321,0.03366 -0.05391,-0.133199 -0.177489,-0.193126 -0.274459,-0.133199 -0.0969,0.05995 -0.17638,-0.141928 -0.17638,-0.448585 0,-0.737711 -0.181194,-0.884817 -0.610802,-0.49596 -0.335044,0.303209 -0.352979,0.288543 -0.352979,-0.288741 0,-0.334493 -0.08671,-0.608171 -0.192756,-0.608171 -0.10597,0 -0.192756,0.21686 -0.192756,0.481913 0,0.265054 -0.08671,0.481926 -0.192756,0.481926 -0.10597,0 -0.192756,-0.120005 -0.192756,-0.266678 0,-0.146662 -0.172673,-0.311834 -0.383846,-0.367051 -0.277294,-0.07245 -0.451209,0.03775 -0.626475,0.397014 -0.337045,0.691037 -0.724486,0.774675 -0.724486,0.156384 0,-0.505741 -0.260361,-0.663692 -0.487688,-0.295847 -0.08541,0.138166 -0.210969,0.130698 -0.396889,-0.02361 -0.215119,-0.178552 -0.271978,-0.160357 -0.271978,0.08706 0,0.606874 -0.373303,0.302882 -0.582604,-0.474422 -0.139694,-0.518515 -0.298436,-0.753991 -0.465328,-0.689939 -0.143399,0.05504 -0.364613,-0.126035 -0.509848,-0.417616 l -0.25647,-0.514857 -0.06947,0.530119 c -0.09042,0.689448 -0.345938,0.672304 -0.7185,-0.04815 -0.164521,-0.318062 -0.366467,-0.578301 -0.448875,-0.578301 -0.08245,0 -0.335026,0.368663 -0.561354,0.819258 -0.383381,0.76321 -0.412358,0.782995 -0.423493,0.28915 -0.0111,-0.475521 -0.397481,-0.803762 -0.397481,-0.337344 0,0.105993 -0.08671,0.192775 -0.192756,0.192775 -0.10597,0 -0.192756,-0.296525 -0.192756,-0.658924 0,-1.377505 -0.498917,-1.736538 -0.696435,-0.501184 -0.120982,0.756959 -0.460102,0.901598 -0.460102,0.196269 0,-0.666134 -0.365447,-0.599254 -0.754573,0.138095 -0.227699,0.431418 -0.388403,0.591553 -0.393442,0.392012 -0.0056,-0.185541 -0.07633,-0.337344 -0.159148,-0.337344 -0.08282,0 -0.265921,-0.390352 -0.406782,-0.867451 -0.261381,-0.885284 -0.523724,-1.095366 -0.722132,-0.578301 -0.06095,0.159037 -0.185697,0.28915 -0.277036,0.28915 -0.09134,0 -0.123391,-0.111485 -0.07096,-0.247839 0.111346,-0.290273 -0.712883,-0.35935 -0.905354,-0.07584 -0.06792,0.100034 -0.182195,-0.0035 -0.253936,-0.229118 -0.148181,-0.466874 -0.489976,-0.556097 -0.489976,-0.127905 0,0.16883 -0.113437,0.239566 -0.281063,0.175245 -0.187466,-0.07199 -0.322808,0.05843 -0.406412,0.39158 -0.131765,0.525047 -0.469066,0.690932 -0.469066,0.230685 0,-0.14783 -0.264693,-0.552136 -0.588207,-0.898478 -0.564865,-0.604724 -0.592525,-0.613173 -0.697129,-0.213156 -0.131209,0.50178 -0.190768,0.510673 -0.607814,0.0908 -0.303359,-0.305395 -0.327423,-0.284336 -0.385488,0.337344 -0.09092,0.973351 -0.348871,1.08867 -0.48806,0.21818 -0.143159,-0.895253 -0.702929,-1.52864 -0.702929,-0.795348 0,0.438885 -0.0051,0.439949 -0.347058,0.07175 -0.19088,-0.205524 -0.420402,-0.547178 -0.510048,-0.759221 -0.152347,-0.360359 -0.176174,-0.350915 -0.364803,0.144567 -0.207853,0.545987 -0.510631,0.715704 -0.515856,0.289148 -0.002,-0.16374 -0.06023,-0.1504 -0.181695,0.04172 -0.143122,0.226302 -0.219281,0.17597 -0.382202,-0.252562 -0.111907,-0.294346 -0.287822,-0.483037 -0.390929,-0.41931 -0.103107,0.06374 -0.242783,-0.104544 -0.310393,-0.373936 -0.155943,-0.621338 -0.413649,-0.624263 -0.694478,-0.0079 -0.302455,0.663851 -0.712608,0.603339 -0.979941,-0.144567 l -0.223931,-0.626494 -0.130653,0.578301 c -0.126597,0.560304 -0.135138,0.564295 -0.274676,0.128281 -0.103423,-0.323144 -0.187091,-0.380325 -0.29679,-0.20282 -0.106379,0.172136 -0.191427,0.09317 -0.280069,-0.260023 -0.0763,-0.303957 -0.226618,-0.469106 -0.375137,-0.41211 -0.161408,0.06194 -0.292735,-0.144216 -0.376574,-0.591135 -0.136266,-0.726389 -0.496778,-0.949008 -0.496778,-0.30676 0,0.530911 -0.511693,0.297572 -0.662156,-0.301952 -0.06527,-0.260081 -0.279111,-0.633313 -0.475195,-0.829408 -0.196084,-0.196095 -0.400775,-0.47581 -0.454871,-0.621589 -0.07539,-0.20317 -0.169597,-0.175044 -0.403478,0.120482 -0.290987,0.367674 -0.305408,0.368728 -0.311253,0.02275 -0.0048,-0.284862 -0.526936,-1.345659 -0.902354,-1.833317 -0.03203,-0.04161 -0.168763,0.0032 -0.303851,0.09941 -0.135082,0.09631 -0.419085,0.173174 -0.631118,0.170839 -0.306142,-0.0034 -0.372753,-0.113146 -0.32353,-0.533153 0.04437,-0.37863 -0.02408,-0.52891 -0.240947,-0.52891 -0.180251,0 -0.30293,-0.165689 -0.30293,-0.409137 0,-0.341821 -0.04757,-0.369655 -0.289136,-0.169171 -0.241563,0.20049 -0.289134,0.172654 -0.289134,-0.169171 0,-0.287551 -0.120704,-0.409138 -0.406137,-0.409138 -0.313251,0 -0.373143,-0.07715 -0.261875,-0.337342 0.444027,-1.038305 0.213867,-1.908756 -0.280334,-1.060219 -0.177249,0.304351 -0.197047,0.305921 -0.202334,0.01611 -0.0032,-0.176712 -0.114291,-0.357774 -0.246809,-0.402377 -0.187844,-0.06323 -0.182641,-0.151738 0.02361,-0.401598 0.171969,-0.208353 0.18884,-0.320499 0.04819,-0.320499 -0.118999,0 -0.216359,-0.13523 -0.216359,-0.300529 0,-0.165281 -0.08675,-0.246914 -0.192757,-0.181381 -0.27054,0.167208 -0.241313,-0.356252 0.03533,-0.632917 0.125447,-0.125466 0.161723,-0.294476 0.08061,-0.375593 -0.08111,-0.08111 -0.258374,0.0042 -0.393915,0.189554 -0.326666,0.446765 -0.557868,0.432773 -0.316032,-0.01912 0.104825,-0.195892 0.143382,-0.738049 0.08568,-1.204793 -0.05772,-0.466748 -0.10112,-1.347414 -0.09649,-1.957039 0.0064,-0.844714 -0.0582,-1.10841 -0.271658,-1.10841 -0.339347,0 -0.366943,-0.414342 -0.04878,-0.732516 0.179898,-0.179917 0.179898,-0.282725 0,-0.462641 -0.127226,-0.127226 -0.232588,-0.452519 -0.234152,-0.722875 -0.0035,-0.622143 -0.441909,-1.469825 -0.728818,-1.409512 -0.120037,0.02523 -0.172099,-0.07443 -0.11567,-0.221461 0.05642,-0.14703 0.0085,-0.32548 -0.10646,-0.396541 -0.114981,-0.07105 -0.159131,-0.209952 -0.09814,-0.308649 0.06099,-0.09869 -0.02433,-0.179454 -0.189613,-0.179454 -0.165281,0 -0.280969,-0.06507 -0.257084,-0.144567 0.02388,-0.07951 -0.181232,-0.383124 -0.455809,-0.674683 -0.496876,-0.52761 -1.32243,-0.724545 -1.32243,-0.315464 0,0.133729 -0.236159,0.177749 -0.626462,0.116779 -0.802334,-0.125355 -3.302266,1.008028 -5.119506,2.321004 -0.709315,0.512488 -1.745052,1.22427 -2.301638,1.58174 -0.556587,0.35747 -1.011974,0.722081 -1.011974,0.810248 0,0.256526 -0.730514,0.18479 -0.821426,-0.08065 -0.04539,-0.132525 0.167022,-0.734291 0.472042,-1.337251 0.305012,-0.60296 0.724366,-1.589846 0.931897,-2.193078 0.207532,-0.603233 0.63844,-1.491011 0.957571,-1.972838 0.691904,-1.044638 0.733444,-1.61989 0.146532,-2.029315 -0.33929,-0.236691 -0.364761,-0.304753 -0.117,-0.312662 0.31469,-0.01005 0.546235,-0.364246 0.676854,-1.035387 0.05539,-0.284641 -0.01316,-0.324739 -0.364772,-0.213153 -0.384969,0.122187 -0.403824,0.102265 -0.169968,-0.179528 0.225684,-0.271947 0.218628,-0.316956 -0.04971,-0.316956 -0.457928,0 -0.381681,-0.331471 0.157518,-0.684789 0.272645,-0.178656 0.425981,-0.42354 0.364892,-0.582745 -0.05795,-0.151033 -0.01241,-0.274603 0.101307,-0.274603 0.11366,0 0.50305,-0.260236 0.865287,-0.5783 0.362239,-0.318066 0.753827,-0.578302 0.870198,-0.578302 0.11637,0 0.391483,-0.352656 0.611365,-0.783681 0.21988,-0.431024 0.50182,-0.749667 0.626532,-0.708093 0.124705,0.04158 0.374625,-0.104545 0.555366,-0.324732 0.276279,-0.336561 0.389393,-0.363314 0.710245,-0.167984 0.421126,0.25637 0.508785,0.188911 0.981203,-0.755088 0.173359,-0.346396 0.395859,-0.508983 0.659533,-0.481918 0.303646,0.03117 0.422742,-0.09618 0.502681,-0.537456 0.07465,-0.41202 0.22911,-0.596014 0.537224,-0.639901 0.258737,-0.03685 0.434926,0.0406 0.438594,0.192767 0.0041,0.16554 0.09979,0.130764 0.274303,-0.09953 0.253785,-0.334913 0.284069,-0.324569 0.564424,0.192768 0.207383,0.382683 0.298564,0.445475 0.303967,0.209324 0.0096,-0.423347 0.312456,-0.440359 0.471268,-0.02648 0.0966,0.251752 0.173823,0.26559 0.406137,0.07277 0.238415,-0.197877 0.286854,-0.170005 0.286854,0.165003 0,0.279104 0.08893,0.368958 0.289137,0.29213 0.211442,-0.08115 0.289136,0.02408 0.289136,0.391583 0,0.488461 0.380391,0.74318 0.390643,0.261583 0.0028,-0.132524 0.153014,-0.0025 0.333781,0.289152 0.18075,0.291559 0.401497,0.530109 0.490532,0.530109 0.269391,0 0.712614,0.530962 0.712614,0.853682 0,0.166614 0.115459,0.30292 0.256564,0.30292 0.141102,0 0.379646,0.231296 0.530081,0.513992 0.398454,0.748775 1.30997,1.606445 1.707293,1.606445 0.262948,0 0.322261,0.113495 0.251837,0.481918 -0.06564,0.343415 -0.0078,0.481917 0.201442,0.481917 0.195084,0 0.260934,0.124761 0.1963,0.371941 -0.106881,0.408718 0.48379,1.555582 0.801371,1.555978 0.109663,1.35e-4 0.207109,0.450894 0.216547,1.001683 0.0098,0.574646 0.112537,1.033227 0.240947,1.076035 0.123075,0.04102 0.223785,0.274952 0.223785,0.519828 0,0.244877 0.116254,0.489848 0.258373,0.54438 0.167744,0.06437 0.227679,0.308279 0.170875,0.695309 -0.0531,0.361824 -0.0032,0.596158 0.127133,0.596158 0.118055,0 0.214635,0.216863 0.214635,0.481917 0,0.265055 0.09185,0.481918 0.204131,0.481918 0.112269,0 0.148162,0.09056 0.07976,0.201244 -0.0684,0.11068 0.01316,0.41124 0.181381,0.667902 0.168171,0.256662 0.305752,0.599828 0.305752,0.762592 0,0.162761 0.06557,0.295931 0.145697,0.295931 0.196898,0 0.723121,1.192292 0.659358,1.493945 -0.02801,0.132524 0.03962,0.240958 0.150274,0.240958 0.110667,0 0.201206,-0.08675 0.201206,-0.192765 0,-0.408341 0.738632,0.570265 0.865121,1.146187 0.108693,0.49491 0.183585,0.565441 0.40514,0.381558 0.216085,-0.179343 0.271797,-0.157203 0.271797,0.108074 0,0.259637 0.106904,0.30682 0.481892,0.212696 0.324106,-0.08135 0.482386,-0.04085 0.483395,0.123687 0.0018,0.279141 0.86236,0.726549 1.397601,0.726549 0.197152,0 0.306423,0.08421 0.242824,0.187116 -0.06361,0.10292 0.125596,0.247662 0.420417,0.321664 0.294831,0.074 0.660437,0.258936 0.812458,0.410963 0.274274,0.274287 1.034719,0.245515 1.833019,-0.06937 0.292362,-0.115318 0.345402,-0.0801 0.250764,0.166541 -0.08342,0.217388 -0.03707,0.280964 0.151958,0.208425 0.149589,-0.0574 0.3245,-0.26985 0.388689,-0.4721 0.12339,-0.3888 0.47624,-0.51 0.47624,-0.163575 0,0.112268 0.08675,0.150532 0.192758,0.085 0.250005,-0.154517 0.244519,0.02501 -0.01557,0.5111 -0.267975,0.50074 -0.0878,0.680622 0.336185,0.335628 0.288227,-0.234531 0.314977,-0.228584 0.211836,0.0471 -0.08991,0.240312 -0.02886,0.292202 0.25605,0.21769 0.205753,-0.0538 0.421232,-0.174099 0.478846,-0.267332 0.20437,-0.330694 0.49159,-0.163502 0.371134,0.216035 -0.162076,0.510658 -2.82e-4,0.484959 1.235528,-0.196259 1.232825,-0.679567 1.244886,-0.682033 0.987951,-0.201947 -0.27472,0.513355 -0.251598,0.598854 0.12302,0.455073 0.244391,-0.09378 0.29258,-0.0456 0.198797,0.198817 -0.09078,0.236491 -0.01908,0.322617 0.268347,0.322617 0.551367,0 1.158205,-0.335919 1.686913,-0.933803 l 0.452692,-0.51195 -0.120056,0.534342 c -0.168226,0.748393 0.308958,0.876369 1.144902,0.307058 0.368171,-0.250726 0.669978,-0.520924 0.670701,-0.60044 7.22e-4,-0.07951 0.139509,-0.144567 0.308588,-0.144567 0.168967,0 0.79787,-0.371113 1.397483,-0.824695 0.59963,-0.453583 1.515481,-1.072212 2.035241,-1.374734 1.031665,-0.600479 2.072241,-1.482799 3.284619,-2.785109 1.060771,-1.139434 3.365082,-2.995708 4.329696,-3.487845 0.433942,-0.221395 1.461328,-0.944722 2.283061,-1.607392 1.591388,-1.283345 2.454992,-1.856897 3.881544,-2.577906 0.489172,-0.247228 1.626682,-0.996192 2.527823,-1.664368 0.901141,-0.668174 2.07213,-1.478226 2.602209,-1.800114 2.061717,-1.251959 8.025415,-3.919869 10.698026,-4.78586 1.537232,-0.4981 3.185318,-1.086116 3.662381,-1.306702 0.889959,-0.411487 2.488421,-0.912454 4.529801,-1.419657 0.63608,-0.158055 1.85045,-0.499372 2.69858,-0.758499 3.43028,-1.048047 4.52377,-1.240275 7.78423,-1.368431 2.99911,-0.117887 3.51764,-0.083 6.28704,0.422986 0.31805,0.0581 1.14208,0.280471 1.83119,0.494137 0.6891,0.213665 2.29381,0.654967 3.56601,0.980671 2.66363,0.681933 3.93789,1.269294 6.36098,2.93205 0.95414,0.654749 2.29862,1.479903 2.98774,1.833675 1.44734,0.743032 2.00706,1.114028 3.46961,2.299758 0.5831,0.472723 1.77679,1.192459 2.65263,1.599413 1.42252,0.660953 1.63666,0.830878 2.00655,1.592282 0.32954,0.678316 0.54009,0.876001 1.03106,0.968112 0.69906,0.131154 2.40556,1.379375 2.40556,1.759553 0,0.137639 0.2819,0.445037 0.62646,0.683125 0.99064,0.684541 2.74359,2.368419 2.69556,2.589377 -0.0608,0.279864 1.61755,1.999972 2.60379,2.668556 0.80533,0.545954 1.97723,2.062679 1.97723,2.559038 0,0.139731 0.42318,0.721372 0.94039,1.292528 0.55693,0.615012 1.0679,1.42234 1.25305,1.97986 0.22242,0.669676 0.66742,1.29936 1.54175,2.181589 0.676,0.682105 1.39156,1.297183 1.59012,1.366837 0.19857,0.06966 0.36466,0.204648 0.36909,0.299985 0.004,0.09534 0.15841,0.455261 0.34229,0.799833 0.27728,0.519787 0.28684,0.626492 0.0561,0.626492 -0.15284,0 -0.31829,0.108436 -0.3675,0.240958 -0.0504,0.135489 -0.18175,0.0089 -0.30042,-0.289148 -0.11593,-0.291563 -0.29984,-0.530112 -0.40849,-0.530112 -0.29814,0 -0.24028,0.291051 0.20942,1.053244 0.24391,0.413417 0.363,0.857706 0.2973,1.108994 -0.0672,0.256938 0.11102,0.881735 0.46046,1.613845 0.31356,0.657029 0.57011,1.243401 0.57011,1.303051 0,0.05966 0.21685,0.428022 0.48189,0.818601 0.47156,0.694917 0.66411,1.56279 0.29629,1.335459 -0.10856,-0.06708 -0.17064,0.188112 -0.14951,0.615112 0.0199,0.401408 -0.0354,0.843892 -0.12265,0.983296 -0.25957,0.414532 0.0434,1.483417 0.55709,1.966125 0.26342,0.247478 0.47895,0.551107 0.47895,0.674723 0,0.123616 0.31079,0.445909 0.69065,0.716198 0.40866,0.290786 0.6057,0.543943 0.48259,0.620032 -0.14154,0.08753 -0.10295,0.325073 0.12117,0.74415 0.18101,0.338548 0.33922,1.049277 0.35145,1.579384 0.013,0.530107 0.0908,1.159009 0.17454,1.397558 0.12042,0.342895 0.0813,0.433732 -0.18616,0.433732 -0.29707,0 -0.32547,0.142489 -0.23259,1.166885 0.0756,0.833134 0.0424,1.145744 -0.11581,1.092994 -0.12191,-0.0407 -0.38464,0.13334 -0.58387,0.38661 -0.35633,0.45304 -0.35548,0.46766 0.0526,0.90213 0.36647,0.3901 0.38068,0.47 0.12172,0.68489 -0.16118,0.1338 -0.42431,0.1929 -0.5847,0.13135 -0.37854,-0.14527 -0.37434,0.25036 0.009,0.79696 0.4203,0.60011 -0.0263,0.57763 -0.94782,-0.0477 -0.51813,-0.35162 -0.70154,-0.4036 -0.70154,-0.19882 0,0.16731 -0.11464,0.23328 -0.28915,0.16638 -0.21759,-0.0836 -0.28914,0.0328 -0.28914,0.46992 0,0.47164 -0.0674,0.56323 -0.35896,0.48701 -0.24739,-0.0646 -0.39157,0.0307 -0.46385,0.3072 -0.0576,0.22058 -0.24311,0.40108 -0.41205,0.40108 -0.1786,0 -0.30719,0.16136 -0.30719,0.38552 0,0.21205 -0.081,0.38554 -0.17971,0.38554 -0.099,0 -0.23483,0.17341 -0.30212,0.38553 -0.0672,0.21204 -0.23609,0.38552 -0.37512,0.38552 -0.13895,0 -0.36456,0.28193 -0.50121,0.6265 -0.45217,1.140221 -0.59445,1.190341 -0.97377,0.343041 -0.19128,-0.427211 -0.43271,-0.776761 -0.53653,-0.776761 -0.10377,0 -0.22717,-0.19519 -0.27409,-0.43373 l -0.0854,-0.43372 -0.1434,0.43372 c -0.0788,0.23854 -0.20429,0.43373 -0.27876,0.43373 -0.0744,0 -0.25355,0.43372 -0.39789,0.963841 -0.15008,0.5513 -0.37388,0.96384 -0.52278,0.96384 -0.14322,0 -0.31027,0.13005 -0.37131,0.28915 -0.1521,0.39646 -0.45454,0.36465 -0.45815,-0.0481 -0.002,-0.27703 -0.0342,-0.28785 -0.17805,-0.0605 -0.14506,0.22936 -0.22713,0.23357 -0.47892,0.0247 -0.26038,-0.21609 -0.30383,-0.19365 -0.30383,0.15692 0,0.23516 -0.12302,0.40913 -0.28913,0.40913 -0.15897,0 -0.28914,0.13006 -0.28914,0.28915 0,0.44912 -0.37029,0.34073 -0.60639,-0.17749 -0.12506,-0.27459 -0.32176,-0.42479 -0.47778,-0.36491 -0.15729,0.0604 -0.26513,-0.0243 -0.26513,-0.20801 0,-0.41295 -0.11137,-0.39123 -0.62424,0.12172 -0.41945,0.41946 -0.43343,0.42081 -0.5006,0.0481 -0.038,-0.21085 -0.14285,-0.46103 -0.23272,-0.55603 -0.09,-0.095 -0.11417,-0.42027 -0.0535,-0.72288 0.0689,-0.34425 0.0289,-0.550181 -0.10693,-0.550181 -0.11932,0 -0.21684,0.273671 -0.21684,0.608171 0,0.58263 -0.0148,0.59443 -0.36171,0.28085 -0.33512,-0.30332 -0.37069,-0.30393 -0.48417,-0.007 -0.0804,0.20929 -0.20463,0.26089 -0.36115,0.14987 -0.13136,-0.0931 -0.41213,-0.16655 -0.62418,-0.16303 -0.2276,0.004 -0.47777,-0.1924 -0.6108,-0.47888 -0.22506,-0.484751 -0.22531,-0.484591 -0.24094,0.15266 -0.0187,0.76551 -0.31927,0.65585 -0.50366,-0.18378 -0.0943,-0.429611 -0.17824,-0.527081 -0.29349,-0.340711 -0.24062,0.389321 -0.40858,0.105641 -0.51935,-0.8771 -0.0882,-0.78301 -0.12729,-0.84204 -0.35678,-0.53963 -0.23944,0.31554 -0.25811,0.30887 -0.26381,-0.0941 -0.007,-0.53277 -0.22203,-0.55686 -0.53245,-0.0597 -0.27298,0.43712 -1.00978,0.45054 -1.02879,0.0187 -0.009,-0.19262 -0.0861,-0.14451 -0.22221,0.13748 -0.29881,0.6196 -0.53481,0.53561 -0.54163,-0.19277 -0.006,-0.56405 -0.0272,-0.58807 -0.2212,-0.24096 -0.31194,0.55853 -0.3144,0.55967 -0.63568,0.29303 -0.25053,-0.20794 -0.2938,-0.16934 -0.2938,0.26167 0,0.80553 -0.35975,0.58583 -0.59941,-0.36606 -0.20115,-0.79887 -0.24259,-0.84309 -0.49679,-0.53011 -0.19979,0.24602 -0.30522,0.27455 -0.37713,0.10213 -0.0756,-0.18119 -0.19705,-0.18736 -0.49901,-0.0257 -0.33629,0.1799 -0.38036,0.16452 -0.27965,-0.098 0.1295,-0.33751 -0.15526,-0.43414 -0.35024,-0.11876 -0.0656,0.106 -0.1983,0.19275 -0.29508,0.19275 -0.0968,0 0.0386,-0.40325 0.30051,-0.89615 0.50695,-0.9535 0.63785,-1.73231 0.25094,-1.49319 -0.15395,0.0952 -0.18433,0.032 -0.0956,-0.1993 0.0715,-0.18627 0.18594,-0.56174 0.25436,-0.83438 0.10226,-0.40726 0.0677,-0.47393 -0.19358,-0.37368 -0.41063,0.15758 -0.40077,0.0429 0.0513,-0.59655 0.78624,-1.11215 0.65888,-1.926114 -0.1421,-0.90784 -0.45823,0.58259 -0.6127,0.60688 -0.6127,0.0964 0,-0.21203 -0.0867,-0.385527 -0.19277,-0.385527 -0.10599,0 -0.19275,0.173477 -0.19275,0.385527 0,0.43241 -0.19941,0.49456 -0.52904,0.16489 -0.16564,-0.16569 -0.25251,-0.0936 -0.34859,0.28915 -0.15359,0.61217 -0.39858,0.65822 -0.57326,0.10775 -0.12729,-0.40088 -0.12896,-0.40074 -0.62215,0.0481 -0.44593,0.40597 -0.47896,0.41233 -0.33608,0.0646 0.0871,-0.21203 0.19262,-0.73251 0.23442,-1.156603 l 0.076,-0.771064 -0.39205,0.481914 c -0.52934,0.650703 -0.49994,0.400016 0.0813,-0.693188 0.50434,-0.948611 0.60451,-1.710245 0.28913,-2.198317 -0.15025,-0.232624 -0.18744,-0.202135 -0.18981,0.155964 -0.001,0.247103 -0.0887,0.392105 -0.19571,0.325973 -0.10599,-0.06556 -0.19275,-0.330881 -0.19275,-0.589683 0,-0.258801 -0.0867,-0.470543 -0.19276,-0.470543 -0.10599,0 -0.19275,0.08671 -0.19275,0.192775 0,0.105993 -0.0867,0.192763 -0.19275,0.192763 -0.106,0 -0.19278,-0.127391 -0.19278,-0.283109 0,-0.185494 -0.11113,-0.240419 -0.32259,-0.159294 -0.25668,0.09851 -0.29332,0.04803 -0.17917,-0.24701 0.31193,-0.806917 0.29857,-1.367793 -0.0503,-2.105704 l -0.3644,-0.771075 -0.22889,0.575414 c -0.1258,0.316473 -0.36991,0.87264 -0.54231,1.235916 l -0.31342,0.660524 -0.21968,-0.652519 -0.2197,-0.65252 -0.12913,0.645485 c -0.0709,0.355013 -0.12913,0.851499 -0.12913,1.103301 0,0.251801 -0.0867,0.457828 -0.19276,0.457828 -0.106,0 -0.19275,-0.231327 -0.19275,-0.51405 0,-0.282723 -0.0566,-0.457607 -0.12543,-0.388623 -0.069,0.06895 -0.31446,-0.285224 -0.5455,-0.787133 l -0.42008,-0.912548 -0.3218,0.676348 c -0.25273,0.531206 -0.28045,0.820508 -0.12913,1.348102 0.25031,0.872886 0.25024,3.08387 -1.3e-4,3.08387 -0.106,0 -0.19408,-0.19517 -0.19571,-0.433719 -0.002,-0.31486 -0.0481,-0.362458 -0.16766,-0.173692 -0.11453,0.18075 -0.20613,0.03389 -0.30044,-0.481925 -0.14748,-0.806414 -0.58545,-1.609393 -0.87785,-1.609393 -0.11511,0 -0.11336,0.184478 0.004,0.494464 0.24083,0.633507 0.23911,0.909253 -0.006,0.758525 -0.1164,-0.07187 -0.19898,0.21021 -0.20848,0.7115 l -0.0148,0.830628 -0.27399,-0.626483 c -0.57411,-1.312904 -0.53328,-0.510264 0.0661,1.301171 0.37675,1.13839 1.84837,4.10917 2.40375,4.85245 0.24072,0.32217 0.9798,1.16908 1.6424,1.88201 0.93347,1.00437 1.20473,1.429181 1.20473,1.886671 0,0.33887 0.1195,0.63631 0.28043,0.69805 0.30315,0.1164 1.02282,1.41413 1.27844,2.30547 0.087,0.30333 0.17434,1.7371 0.19417,3.18615 0.044,3.23046 0.26126,5.00367 0.88906,7.26102 0.26537,0.9542 0.69434,2.55899 0.95327,3.5662 0.64345,2.50297 0.92471,3.52971 1.39937,5.10832 0.22316,0.74215 0.53153,1.86984 0.68526,2.50598 1.70664,7.06181 2.29941,9.31735 2.81367,10.70643 0.33204,0.89684 0.66555,1.98192 0.74113,2.41125 0.0756,0.42932 0.67428,1.80275 1.33042,3.05203 0.65612,1.24929 1.19106,2.50279 1.18872,2.78558 -0.006,0.6412 -0.59511,1.96477 -1.03946,2.33256 -0.1836,0.15192 -0.49659,0.5954 -0.69558,0.98549 -0.63158,1.23806 -2.02909,1.62727 -3.7477,1.04376 -0.8147,-0.27661 -0.95947,-0.27054 -2.12321,0.0889 -1.07199,0.33112 -1.65218,0.37512 -4.09593,0.31055 -1.56587,-0.0413 -3.03974,-0.13413 -3.27528,-0.20635 -0.34022,-0.10413 -0.47533,-0.0278 -0.6574,0.37182 -0.30171,0.66221 -0.53579,0.6362 -0.67807,-0.0753 z"
     id="path5"
     inkscape:label="emu_trace" />
</svg>
