<?xml version="1.0" encoding="UTF-8" standalone="no"?>
<svg
   version="1.1"
   viewBox="0 0 165.92127 192"
   fill="none"
   stroke="none"
   stroke-linecap="square"
   stroke-miterlimit="10"
   id="svg9"
   sodipodi:docname="TrialEmulation-v3.svg"
   width="43.900002mm"
   height="50.799999mm"
   inkscape:version="1.3.2 (091e20e, 2023-11-25)"
   xmlns:inkscape="http://www.inkscape.org/namespaces/inkscape"
   xmlns:sodipodi="http://sodipodi.sourceforge.net/DTD/sodipodi-0.dtd"
   xmlns="http://www.w3.org/2000/svg"
   xmlns:svg="http://www.w3.org/2000/svg">
  <defs
     id="defs9">
    <rect
       x="209.81864"
       y="16.38497"
       width="125.16296"
       height="71.001535"
       id="rect5" />
  </defs>
  <sodipodi:namedview
     id="namedview9"
     pagecolor="#ffffff"
     bordercolor="#000000"
     borderopacity="0.25"
     inkscape:showpageshadow="2"
     inkscape:pageopacity="0.0"
     inkscape:pagecheckerboard="true"
     inkscape:deskcolor="#d1d1d1"
     inkscape:zoom="3.564186"
     inkscape:cx="129.48258"
     inkscape:cy="94.972596"
     inkscape:window-width="1840"
     inkscape:window-height="988"
     inkscape:window-x="715"
     inkscape:window-y="383"
     inkscape:window-maximized="0"
     inkscape:current-layer="svg9"
     inkscape:document-units="mm" />
  <clipPath
     id="p.0">
    <path
       d="M 0,0 H 960 V 540 H 0 Z"
       clip-rule="nonzero"
       id="path1" />
  </clipPath>
  <path
     sodipodi:type="star"
     style="display:inline;fill:#ffffff;stroke:#4d4d4d;stroke-width:5.01239;stroke-linejoin:round;stroke-dasharray:none;stroke-opacity:1"
     id="path2"
     inkscape:flatsided="true"
     sodipodi:sides="6"
     sodipodi:cx="0"
     sodipodi:cy="0.91027611"
     sodipodi:r1="123.46327"
     sodipodi:r2="106.92233"
     sodipodi:arg1="0.52359878"
     sodipodi:arg2="1.0471976"
     inkscape:rounded="0"
     inkscape:randomized="0"
     d="M 106.92233,62.641914 -5.4344844e-7,124.37355 -106.92233,62.641913 l 0,-123.463274 L 5.4344842e-7,-122.553 106.92233,-60.82136 Z"
     transform="matrix(0.7603712,0,0,0.7603712,82.960634,95.307852)"
     inkscape:label="hexagon" />
  <path
     style="fill:#000000"
     d="m 138.3692,128.68658 c -0.0671,-0.33543 -0.21383,-0.40909 -0.31092,-0.15607 -0.0329,0.0858 -0.1251,0.15607 -0.20481,0.15607 -0.23786,0 -0.18441,-0.75076 0.0731,-1.02722 0.32664,-0.35062 0.63631,-0.42943 1.68748,-0.42943 0.92395,0 1.99508,-0.16684 2.60131,-0.40519 0.5053,-0.19868 1.00728,-0.64307 1.00728,-0.89174 0,-0.12748 0.0681,-0.36836 0.15141,-0.5353 0.1269,-0.25438 0.13487,-0.56644 0.0493,-1.9279 -0.13774,-2.19079 -0.33409,-3.14847 -1.31964,-6.43636 -0.31734,-1.05866 -0.80681,-2.69738 -1.08771,-3.6416 -0.90723,-3.04951 -1.60843,-4.87151 -1.99985,-5.19638 -0.0886,-0.0735 -0.3969,-0.4518 -0.68511,-0.8406 -0.61483,-0.82941 -0.8953,-1.61465 -0.71672,-2.00663 0.27843,-0.6111 -1.12869,-3.5227 -2.64617,-5.475434 -1.22952,-1.582181 -1.47397,-1.866758 -1.57731,-1.836268 -0.0572,0.01688 -0.20689,-0.0073 -0.3326,-0.05373 -0.18113,-0.06691 -0.24266,-0.04004 -0.29645,0.129459 -0.0494,0.155633 -0.0991,0.182697 -0.1824,0.09937 -0.16698,-0.166992 -0.25846,-0.141286 -0.33299,0.09357 -0.0925,0.291546 -0.2601,0.259689 -0.2601,-0.04945 0,-0.231717 -0.0261,-0.247623 -0.26011,-0.158644 -0.1896,0.07209 -0.26053,0.06434 -0.26169,-0.02859 -8.8e-4,-0.07012 -0.0477,-0.197713 -0.10404,-0.283551 -0.0911,-0.138728 -0.11383,-0.138728 -0.2049,0 -0.0714,0.108834 -0.10686,0.116706 -0.11704,0.02601 -0.008,-0.07153 -0.0263,-0.176878 -0.0406,-0.234103 -0.0143,-0.05723 -0.0333,-0.162571 -0.0423,-0.234103 -0.009,-0.07153 -0.0869,-0.22347 -0.17318,-0.337642 -0.13442,-0.177888 -0.17073,-0.185331 -0.25386,-0.05202 -0.0819,0.131359 -0.12284,0.118868 -0.26311,-0.08028 -0.198,-0.28112 -0.35995,-0.216295 -0.35995,0.144079 0,0.183252 -0.0384,0.235446 -0.13005,0.176632 -0.0715,-0.04591 -0.23927,-0.08602 -0.37277,-0.08913 -0.22597,-0.0053 -0.24032,0.02878 -0.20808,0.49359 0.0379,0.546134 -0.0279,0.615744 -0.2638,0.278978 -0.14993,-0.214064 -0.15771,-0.20835 -0.28225,0.207348 -0.0949,0.316874 -0.16084,0.40028 -0.25473,0.322357 -0.16213,-0.134564 -0.39981,0.213324 -0.57686,0.844335 -0.11926,0.425067 -0.13442,0.439675 -0.20619,0.198686 -0.0426,-0.143063 -0.0821,-0.435692 -0.0878,-0.650286 -0.0152,-0.572797 -0.18707,-0.475285 -0.27504,0.156068 -0.067,0.480513 -0.0888,0.518072 -0.18172,0.312138 -0.0581,-0.128757 -0.14528,-0.234103 -0.19375,-0.234103 -0.0485,0 -0.0881,-0.0964 -0.0881,-0.214232 0,-0.117828 -0.0468,-0.185296 -0.10404,-0.149929 -0.0572,0.03537 -0.10404,0.131772 -0.10404,0.214233 0,0.08246 -0.0936,0.243569 -0.20808,0.358019 l -0.20808,0.208092 -0.0114,-0.598263 -0.0114,-0.598264 -0.0897,0.456563 c -0.0942,0.479778 -0.19965,0.687375 -0.19965,0.393145 0,-0.229483 -0.17987,-0.222996 -0.2404,0.0087 -0.0262,0.100144 -0.053,-0.161271 -0.0596,-0.580922 -0.0132,-0.831365 -0.18566,-0.982692 -0.3663,-0.321327 -0.12395,0.453837 -0.15521,0.487725 -0.27757,0.300972 -0.0856,-0.130605 -0.11706,-0.124516 -0.21458,0.04151 -0.0887,0.150927 -0.13318,0.164014 -0.19848,0.05835 -0.0597,-0.09665 -0.13735,-0.02471 -0.26721,0.247631 -0.181,0.37958 -0.44189,0.553398 -0.30284,0.201766 0.13566,-0.343052 0.18611,-0.858378 0.084,-0.858378 -0.19423,0 -0.43452,0.370137 -0.54137,0.833904 -0.15697,0.681263 -0.13589,2.606288 0.044,4.021048 0.32519,2.55723 0.36382,2.90668 0.36369,3.28998 -1.9e-4,0.56983 -0.20134,0.96264 -0.95357,1.86215 -0.36751,0.43946 -0.73513,0.93108 -0.81695,1.09248 -0.0818,0.1614 -0.31923,0.55097 -0.5276,0.86571 -0.20837,0.31474 -0.66887,1.20433 -1.02333,1.97687 -0.35446,0.77254 -0.76258,1.61531 -0.90693,1.87282 -0.14435,0.25752 -0.38111,0.74913 -0.52612,1.09249 -0.14502,0.34335 -0.72181,1.56068 -1.28176,2.70519 -2.13729,4.36851 -2.7302,5.64721 -3.02814,6.53054 -0.1692,0.50163 -0.44622,1.21152 -0.61562,1.57751 -0.16939,0.366 -0.30799,0.73166 -0.30799,0.81257 0,0.0809 -0.11894,0.25886 -0.26432,0.39544 -0.22396,0.21041 -0.39474,0.25472 -1.11843,0.29021 -1.45452,0.0713 -1.65715,0.0666 -2.67483,-0.062 -1.71407,-0.21663 -3.26647,-0.16742 -3.44771,0.1093 -0.0945,0.14429 -0.32269,-0.0224 -0.25875,-0.18896 0.0337,-0.088 -0.0492,-0.15862 -0.227,-0.19343 -0.49137,-0.0962 -1.73176,-0.11169 -1.87371,-0.0234 -0.19417,0.12074 -0.26285,0.0126 -0.18614,-0.29308 0.0363,-0.14469 0.19712,-0.33087 0.35736,-0.41373 0.28297,-0.14634 2.01327,-0.45062 3.91929,-0.68922 0.515,-0.0645 1.21727,-0.18302 1.5606,-0.26346 0.34334,-0.0804 0.74111,-0.15857 0.88394,-0.17363 0.18503,-0.0195 0.31213,-0.139 0.44204,-0.41555 0.11431,-0.24331 0.27754,-0.41205 0.43745,-0.45218 0.18237,-0.0458 0.34527,-0.24657 0.57141,-0.70433 0.17397,-0.35216 0.46889,-0.83424 0.65538,-1.0713 1.00097,-1.27234 2.93646,-4.94222 4.2449,-8.04873 0.18077,-0.42919 0.8454,-1.82784 1.47696,-3.10813 l 1.14828,-2.32778 -0.0526,-1.37742 c -0.0408,-1.06959 -0.0186,-1.4562 0.0994,-1.73 0.22744,-0.52761 0.42796,-4.83301 0.24559,-5.2733 -0.17265,-0.41686 -0.6192,-0.73098 -0.74866,-0.52665 -0.0695,0.10976 -0.0897,0.10065 -0.091,-0.041 -0.002,-0.24133 -0.0922,-0.229626 -0.40045,0.052 l -0.25621,0.2341 0.0772,-0.26011 c 0.16013,-0.53979 0.18456,-0.832368 0.0695,-0.832368 -0.0637,0 -0.11585,0.05577 -0.11585,0.123932 0,0.06816 -0.0631,0.0376 -0.14028,-0.06792 -0.0772,-0.105518 -0.19185,-0.159976 -0.25488,-0.121018 -0.0633,0.03914 -0.1698,-0.03523 -0.23796,-0.166185 -0.0678,-0.130359 -0.13802,-0.254124 -0.15594,-0.275034 -0.0179,-0.02091 -0.15056,0.09614 -0.29474,0.260115 -0.20713,0.23556 -0.26284,0.259917 -0.26544,0.116051 -0.002,-0.100144 -0.0501,-0.18208 -0.10733,-0.18208 -0.0572,0 -0.10404,-0.06865 -0.10404,-0.15256 0,-0.122182 -0.0725,-0.109777 -0.36414,0.0623 -0.31345,0.184951 -0.36414,0.191704 -0.36414,0.04851 0,-0.09149 -0.0702,-0.166346 -0.15606,-0.166346 -0.0858,0 -0.15606,-0.05228 -0.15606,-0.116175 0,-0.06812 -0.10866,-0.0954 -0.26269,-0.06596 -0.2159,0.04127 -0.25213,0.01693 -0.20338,-0.136678 0.0538,-0.169514 0.0283,-0.175476 -0.27377,-0.0641 -0.2487,0.09168 -0.34341,0.09264 -0.37384,0.0038 -0.0224,-0.06546 -0.13693,-0.09386 -0.25449,-0.06311 -0.12275,0.0321 -0.25349,-0.0058 -0.30713,-0.08908 -0.079,-0.122591 -0.10921,-0.120879 -0.19584,0.01109 -0.0817,0.124474 -0.10309,0.10341 -0.10563,-0.104046 -0.002,-0.200656 -0.0252,-0.225246 -0.0997,-0.107571 -0.0772,0.122123 -0.11841,0.09484 -0.20649,-0.136831 -0.0605,-0.159155 -0.11105,-0.415082 -0.11233,-0.568726 l -0.002,-0.279353 -0.20345,0.260115 -0.20346,0.260114 -0.002,-0.298866 c -0.002,-0.266124 -0.0212,-0.283222 -0.17436,-0.156069 -0.0946,0.07854 -0.19815,0.127628 -0.23003,0.109087 -0.0319,-0.01854 -0.0877,0.05094 -0.12397,0.154412 -0.0515,0.146854 -0.0945,0.101557 -0.19621,-0.206491 -0.12006,-0.363788 -0.14137,-0.379914 -0.2729,-0.206435 -0.13108,0.172896 -0.14298,0.162829 -0.1465,-0.123959 l -0.004,-0.312137 -0.25584,0.312137 -0.25585,0.312138 -0.004,-0.35549 c -0.004,-0.384419 -0.0866,-0.388898 -0.1598,-0.0087 -0.0555,0.28802 -0.15606,0.407466 -0.15606,0.185303 0,-0.08883 -0.0624,-0.281743 -0.1386,-0.428687 -0.1294,-0.249432 -0.15013,-0.25565 -0.31213,-0.09364 -0.16199,0.162006 -0.17351,0.158639 -0.17351,-0.05072 0,-0.348277 -0.19611,-0.385463 -0.32016,-0.06071 l -0.11168,0.292387 -0.12641,-0.235108 c -0.0932,-0.173405 -0.15697,-0.204552 -0.24283,-0.118681 -0.0859,0.08587 -0.11207,0.0247 -0.0999,-0.233099 0.0147,-0.310326 -0.0123,-0.347914 -0.24056,-0.335159 -0.14143,0.0079 -0.31551,-0.06233 -0.38685,-0.156068 -0.0931,-0.122312 -0.13063,-0.131265 -0.133,-0.03171 -0.002,0.0763 -0.0618,0.117743 -0.13336,0.09209 -0.0715,-0.02565 -0.20697,-0.0072 -0.30098,0.04105 -0.13892,0.07126 -0.18429,0.0164 -0.24233,-0.292987 -0.055,-0.293154 -0.0953,-0.346444 -0.17513,-0.231798 -0.0796,0.114289 -0.11602,0.118508 -0.1567,0.01816 -0.0291,-0.07189 -0.0958,-0.10424 -0.14814,-0.07189 -0.0523,0.03235 -0.0952,-0.07661 -0.0952,-0.242125 0,-0.39818 -0.0978,-0.477578 -0.32968,-0.267697 -0.18084,0.16366 -0.19052,0.155741 -0.19052,-0.155842 0,-0.180545 -0.0468,-0.328263 -0.10404,-0.328263 -0.0572,0 -0.10404,0.117051 -0.10404,0.260114 0,0.143063 -0.0468,0.260115 -0.10404,0.260115 -0.0572,0 -0.10404,-0.06477 -0.10404,-0.143934 0,-0.07916 -0.0932,-0.168316 -0.20718,-0.198116 -0.14967,-0.03914 -0.24354,0.02035 -0.33814,0.214285 -0.18192,0.372987 -0.39104,0.418129 -0.39104,0.08441 0,-0.272977 -0.14053,-0.358228 -0.26323,-0.159687 -0.0461,0.07458 -0.11387,0.07055 -0.21422,-0.01274 -0.11611,-0.09637 -0.1468,-0.08655 -0.1468,0.04697 0,0.327558 -0.20149,0.163478 -0.31446,-0.256069 -0.0754,-0.279869 -0.16108,-0.406965 -0.25116,-0.372395 -0.0774,0.02972 -0.1968,-0.06803 -0.27519,-0.225408 l -0.13843,-0.277892 -0.0375,0.286126 c -0.0488,0.372133 -0.18672,0.362879 -0.38781,-0.02601 -0.0888,-0.171676 -0.1978,-0.312138 -0.24228,-0.312138 -0.0445,0 -0.18083,0.198988 -0.30299,0.442195 -0.20693,0.411941 -0.22257,0.422619 -0.22858,0.156069 -0.006,-0.256661 -0.21454,-0.433828 -0.21454,-0.182081 0,0.05723 -0.0468,0.104046 -0.10404,0.104046 -0.0572,0 -0.10404,-0.160043 -0.10404,-0.35565 0,-0.743508 -0.26929,-0.937298 -0.3759,-0.270516 -0.0653,0.408569 -0.24834,0.486638 -0.24834,0.105937 0,-0.359542 -0.19725,-0.323444 -0.40728,0.07454 -0.1229,0.232854 -0.20964,0.319288 -0.21236,0.211587 -0.003,-0.100144 -0.0412,-0.18208 -0.0859,-0.18208 -0.0447,0 -0.14353,-0.210693 -0.21956,-0.468206 -0.14108,-0.477832 -0.28268,-0.591227 -0.38977,-0.312138 -0.0329,0.08584 -0.10023,0.156069 -0.14953,0.156069 -0.0493,0 -0.0666,-0.0602 -0.0383,-0.133773 0.0601,-0.156676 -0.384778,-0.19396 -0.488664,-0.04095 -0.03666,0.054 -0.09834,-0.0017 -0.137062,-0.123665 -0.07998,-0.251998 -0.264464,-0.300157 -0.264464,-0.06904 0,0.09113 -0.06123,0.129306 -0.151704,0.09459 -0.101184,-0.03883 -0.174235,0.03156 -0.21936,0.211357 -0.07112,0.283394 -0.253178,0.372926 -0.253178,0.124509 0,-0.07979 -0.142868,-0.298013 -0.317484,-0.48495 -0.304886,-0.326398 -0.319815,-0.330963 -0.376275,-0.115049 -0.07082,0.270831 -0.102967,0.275635 -0.328067,0.04902 -0.163738,-0.164839 -0.176726,-0.153473 -0.208067,0.18208 -0.04907,0.525366 -0.188303,0.58761 -0.26343,0.117767 -0.07727,-0.483217 -0.379405,-0.825085 -0.379405,-0.429293 0,0.236889 -0.0028,0.237463 -0.187324,0.03875 -0.103028,-0.110934 -0.226912,-0.29534 -0.275298,-0.40979 -0.08223,-0.194503 -0.09509,-0.189406 -0.196902,0.07803 -0.112189,0.294695 -0.275613,0.386298 -0.278433,0.156069 -0.0011,-0.08838 -0.03251,-0.08118 -0.09807,0.02249 -0.07725,0.122146 -0.118357,0.09498 -0.206293,-0.136319 -0.0604,-0.158873 -0.155352,-0.260718 -0.211004,-0.226322 -0.05565,0.0344 -0.131042,-0.05643 -0.167534,-0.201831 -0.08417,-0.335367 -0.223267,-0.336946 -0.374844,-0.0043 -0.16325,0.358313 -0.38463,0.325652 -0.528922,-0.07803 l -0.120867,-0.338149 -0.07052,0.312137 c -0.06833,0.302424 -0.07294,0.304578 -0.148256,0.06924 -0.05582,-0.174417 -0.100982,-0.205281 -0.160192,-0.109472 -0.05742,0.09291 -0.103323,0.05029 -0.151167,-0.140347 -0.04118,-0.164061 -0.122317,-0.2532 -0.20248,-0.222437 -0.08712,0.03343 -0.158003,-0.07784 -0.203255,-0.319064 -0.07355,-0.392068 -0.268136,-0.512226 -0.268136,-0.165574 0,0.286559 -0.276186,0.160615 -0.357398,-0.162978 -0.03523,-0.140378 -0.15065,-0.34183 -0.256486,-0.447672 -0.105836,-0.105842 -0.216318,-0.256818 -0.245516,-0.335502 -0.04069,-0.109661 -0.09154,-0.09448 -0.217777,0.06503 -0.15706,0.198451 -0.164844,0.19902 -0.167999,0.01228 -0.0026,-0.153754 -0.284413,-0.726318 -0.487044,-0.989531 -0.01729,-0.02246 -0.09109,0.0017 -0.164004,0.05366 -0.07291,0.05198 -0.226201,0.09347 -0.340645,0.09221 -0.16524,-0.0018 -0.201193,-0.06107 -0.174625,-0.287769 0.02395,-0.204365 -0.013,-0.285479 -0.130051,-0.285479 -0.09729,0 -0.163506,-0.08943 -0.163506,-0.220831 0,-0.184498 -0.02568,-0.199521 -0.156061,-0.09131 -0.130384,0.108214 -0.15606,0.09319 -0.15606,-0.09131 0,-0.155205 -0.06515,-0.220832 -0.219212,-0.220832 -0.169077,0 -0.201404,-0.04164 -0.141347,-0.18208 0.239663,-0.560424 0.115435,-1.030249 -0.15131,-0.572252 -0.09567,0.164273 -0.106356,0.165121 -0.10921,0.0087 -0.0017,-0.09538 -0.06169,-0.193108 -0.133215,-0.217183 -0.101388,-0.03413 -0.09858,-0.0819 0.01274,-0.216762 0.09282,-0.112458 0.101926,-0.172989 0.02601,-0.172989 -0.06423,0 -0.11678,-0.07299 -0.11678,-0.16221 0,-0.08921 -0.04682,-0.133272 -0.10404,-0.0979 -0.146024,0.09025 -0.130249,-0.192287 0.01907,-0.341617 0.06771,-0.06772 0.08729,-0.158943 0.04351,-0.202726 -0.04378,-0.04378 -0.139457,0.0023 -0.212615,0.102312 -0.176318,0.241141 -0.301109,0.233589 -0.170578,-0.01032 0.05658,-0.105732 0.07739,-0.398361 0.04625,-0.650286 -0.03115,-0.251926 -0.05458,-0.727265 -0.05208,-1.05631 0.0035,-0.455933 -0.03141,-0.598263 -0.146627,-0.598263 -0.183162,0 -0.198057,-0.223641 -0.02633,-0.395375 0.0971,-0.09711 0.0971,-0.1526 0,-0.24971 -0.06867,-0.06867 -0.125539,-0.244247 -0.126383,-0.390171 -0.0019,-0.335801 -0.23852,-0.793337 -0.393379,-0.760783 -0.06479,0.01362 -0.09289,-0.04017 -0.06243,-0.119533 0.03045,-0.07936 0.0046,-0.175678 -0.05746,-0.214033 -0.06206,-0.03835 -0.08589,-0.113322 -0.05297,-0.166593 0.03292,-0.05327 -0.01313,-0.09686 -0.102344,-0.09686 -0.08921,0 -0.151653,-0.03512 -0.138761,-0.07803 0.01289,-0.04292 -0.09782,-0.206791 -0.246022,-0.36416 -0.268189,-0.284777 -0.713781,-0.391072 -0.713781,-0.170271 0,0.07218 -0.127466,0.09594 -0.338132,0.06303 -0.433059,-0.06766 -1.782395,0.544082 -2.763249,1.25276 -0.382852,0.276615 -0.94189,0.660799 -1.242307,0.853743 -0.300417,0.192944 -0.546212,0.389742 -0.546212,0.43733 0,0.13846 -0.394294,0.09974 -0.443364,-0.04353 -0.0245,-0.07153 0.09015,-0.396333 0.254784,-0.72178 0.16463,-0.325447 0.390976,-0.858118 0.502991,-1.183712 0.112015,-0.325595 0.344597,-0.804772 0.516848,-1.064838 0.373455,-0.563842 0.395876,-0.874334 0.07909,-1.095321 -0.183131,-0.127753 -0.196879,-0.16449 -0.06315,-0.168759 0.169853,-0.0054 0.29483,-0.196601 0.365331,-0.558849 0.0299,-0.153635 -0.0071,-0.175277 -0.196885,-0.115049 -0.207787,0.06595 -0.217964,0.0552 -0.09174,-0.0969 0.121813,-0.146783 0.118004,-0.171077 -0.02683,-0.171077 -0.247167,0 -0.206012,-0.178911 0.08502,-0.369614 0.14716,-0.09643 0.229923,-0.228605 0.19695,-0.314536 -0.03128,-0.08152 -0.0067,-0.148217 0.05468,-0.148217 0.06135,0 0.271521,-0.140462 0.467038,-0.312137 0.195518,-0.171676 0.406877,-0.312138 0.469688,-0.312138 0.06281,0 0.211303,-0.190346 0.329984,-0.422991 0.11868,-0.232645 0.270857,-0.404632 0.33817,-0.382193 0.06731,0.02244 0.202204,-0.05643 0.299758,-0.175273 0.149122,-0.181659 0.210175,-0.196099 0.383355,-0.09067 0.227302,0.138376 0.274616,0.101965 0.529603,-0.407558 0.09357,-0.186967 0.213665,-0.274723 0.355982,-0.260115 0.163893,0.01682 0.228175,-0.05191 0.271322,-0.290091 0.04029,-0.222387 0.123662,-0.321698 0.289966,-0.345386 0.139653,-0.01989 0.234751,0.02191 0.236731,0.104046 0.0022,0.08935 0.05386,0.07058 0.148055,-0.05372 0.13698,-0.180769 0.153326,-0.175186 0.304647,0.104046 0.111935,0.206553 0.16115,0.240445 0.164066,0.112983 0.0052,-0.228501 0.168648,-0.237684 0.254367,-0.01429 0.05214,0.135883 0.09382,0.143352 0.219212,0.03928 0.128684,-0.106804 0.154829,-0.09176 0.154829,0.08906 0,0.150646 0.048,0.199145 0.156061,0.157677 0.114126,-0.0438 0.156061,0.013 0.156061,0.211357 0,0.263646 0.205316,0.40113 0.210849,0.141189 0.0015,-0.07153 0.08259,-0.0013 0.180158,0.156069 0.09756,0.157369 0.216708,0.286126 0.264764,0.286126 0.145404,0 0.384633,0.286586 0.384633,0.460774 0,0.08993 0.06232,0.163501 0.13848,0.163501 0.07616,0 0.204914,0.124842 0.286111,0.277427 0.215066,0.40415 0.707055,0.867077 0.92151,0.867077 0.141926,0 0.17394,0.06126 0.135929,0.260115 -0.03543,0.185358 -0.0042,0.260114 0.108728,0.260114 0.105296,0 0.140839,0.06734 0.105953,0.200755 -0.05769,0.220605 0.261125,0.839624 0.432539,0.839838 0.05919,7.3e-5 0.111787,0.243369 0.116881,0.540657 0.0053,0.310165 0.06074,0.557684 0.130051,0.580789 0.06643,0.02214 0.120788,0.148405 0.120788,0.280577 0,0.132172 0.06275,0.264395 0.139456,0.293829 0.09054,0.03474 0.12289,0.166393 0.09223,0.375292 -0.02866,0.195294 -0.0017,0.321776 0.06862,0.321776 0.06372,0 0.115849,0.117051 0.115849,0.260114 0,0.143063 0.04958,0.260115 0.11018,0.260115 0.0606,0 0.07997,0.04888 0.04305,0.108621 -0.03692,0.05974 0.0071,0.221967 0.0979,0.3605 0.09077,0.138533 0.165029,0.323756 0.165029,0.411608 0,0.08785 0.03539,0.159729 0.07864,0.159729 0.106275,0 0.390304,0.643538 0.355888,0.806355 -0.01512,0.07153 0.02138,0.130057 0.08111,0.130057 0.05973,0 0.108601,-0.04682 0.108601,-0.104045 0,-0.220402 0.398676,0.3078 0.466948,0.618653 0.05867,0.267128 0.09909,0.305197 0.218674,0.205946 0.116632,-0.0968 0.146702,-0.08485 0.146702,0.05833 0,0.140139 0.0577,0.165606 0.260101,0.114803 0.174936,-0.04391 0.260367,-0.02205 0.260912,0.06676 9.27e-4,0.150666 0.465458,0.392154 0.754354,0.392154 0.106413,0 0.165392,0.04545 0.131064,0.100996 -0.03433,0.05555 0.06779,0.133675 0.22692,0.173618 0.159135,0.03994 0.35647,0.13976 0.438523,0.221817 0.148039,0.148046 0.558489,0.132516 0.989371,-0.03744 0.157802,-0.06224 0.18643,-0.04323 0.135349,0.08989 -0.04502,0.117335 -0.02001,0.15165 0.08202,0.112497 0.08074,-0.03098 0.175148,-0.145651 0.209794,-0.254815 0.0666,-0.209855 0.25705,-0.275272 0.25705,-0.08829 0,0.0606 0.04682,0.08125 0.104041,0.04588 0.13494,-0.0834 0.131979,0.0135 -0.0084,0.275866 -0.144639,0.270274 -0.04739,0.367365 0.181456,0.181155 0.15557,-0.126588 0.170008,-0.123378 0.114338,0.02542 -0.04853,0.129708 -0.01558,0.157716 0.138203,0.117498 0.111055,-0.02904 0.22736,-0.09397 0.258457,-0.144292 0.110308,-0.178492 0.265335,-0.08825 0.200319,0.116605 -0.08748,0.275627 -1.52e-4,0.261756 0.666875,-0.105931 0.665416,-0.366796 0.671926,-0.368127 0.533246,-0.109001 -0.14828,0.277083 -0.1358,0.323231 0.0664,0.245626 0.13191,-0.05062 0.15792,-0.02461 0.1073,0.107311 -0.049,0.127646 -0.0103,0.174132 0.14484,0.174132 0.2976,0 0.62514,-0.181312 0.91051,-0.504019 l 0.24434,-0.276325 -0.0648,0.288411 c -0.0908,0.403944 0.16676,0.473019 0.61796,0.165734 0.19872,-0.135329 0.36162,-0.281168 0.36201,-0.324087 3.9e-4,-0.04292 0.0753,-0.07803 0.16656,-0.07803 0.0912,0 0.43065,-0.200308 0.75429,-0.445128 0.32365,-0.244821 0.81798,-0.578726 1.09852,-0.742012 0.55684,-0.324108 1.11849,-0.800339 1.77287,-1.50326 0.57255,-0.615008 1.8163,-1.616931 2.33695,-1.882561 0.23422,-0.119498 0.78875,-0.509913 1.23228,-0.867589 0.85895,-0.692684 1.32508,-1.002258 2.09506,-1.391422 0.26403,-0.133441 0.878,-0.537694 1.36439,-0.898341 0.48639,-0.360647 1.11843,-0.797871 1.40454,-0.97161 1.11281,-0.675744 4.33171,-2.115746 5.77425,-2.583164 0.82972,-0.268849 1.71927,-0.58623 1.97677,-0.705291 0.48035,-0.2221 1.34312,-0.492496 2.44495,-0.766259 0.34333,-0.08531 0.99878,-0.269535 1.45656,-0.409399 1.85149,-0.565682 2.4417,-0.669437 4.20153,-0.738609 1.61877,-0.06363 1.89864,-0.0448 3.39342,0.228306 0.17167,0.03136 0.61644,0.151384 0.98839,0.26671 0.37194,0.115326 1.23808,0.353518 1.92475,0.529316 1.43769,0.368073 2.12547,0.685101 3.43333,1.582572 0.515,0.3534 1.24068,0.798776 1.61263,0.989724 0.7812,0.401051 1.08331,0.601296 1.87272,1.241293 0.31473,0.255151 0.95902,0.643628 1.43176,0.863281 0.7678,0.356749 0.88338,0.448466 1.08303,0.859433 0.17787,0.36612 0.29151,0.472821 0.55651,0.522538 0.37732,0.07079 1.2984,0.744516 1.2984,0.949717 0,0.07429 0.15216,0.240208 0.33813,0.368716 0.5347,0.36948 1.48085,1.278352 1.45493,1.397614 -0.0328,0.151056 0.87307,1.079483 1.40539,1.440351 0.43468,0.294678 1.06721,1.113329 1.06721,1.381238 0,0.07542 0.22841,0.38936 0.50758,0.697641 0.3006,0.331952 0.57639,0.767707 0.67633,1.068628 0.12005,0.361457 0.36024,0.701328 0.83216,1.17751 0.36487,0.368166 0.75109,0.700154 0.85826,0.73775 0.10718,0.0376 0.19683,0.110458 0.19922,0.161916 0.002,0.05146 0.0855,0.245727 0.18475,0.431709 0.14966,0.280555 0.15482,0.338149 0.0303,0.338149 -0.0825,0 -0.1718,0.05853 -0.19836,0.130057 -0.0272,0.07313 -0.0981,0.0048 -0.16215,-0.156068 -0.0626,-0.15737 -0.16184,-0.286127 -0.22048,-0.286127 -0.16092,0 -0.12969,0.157094 0.11303,0.568487 0.13165,0.223142 0.19593,0.462946 0.16047,0.598579 -0.0363,0.138682 0.0599,0.475916 0.24853,0.871071 0.16925,0.354631 0.30772,0.671125 0.30772,0.703321 0,0.0322 0.11704,0.231024 0.2601,0.441839 0.25452,0.375081 0.35845,0.843514 0.15992,0.72081 -0.0586,-0.03623 -0.0921,0.101537 -0.0807,0.332008 0.0107,0.216659 -0.0191,0.455489 -0.0662,0.530733 -0.1401,0.223741 0.0234,0.800672 0.30069,1.061215 0.14218,0.133578 0.25851,0.297461 0.25851,0.364184 0,0.06672 0.16775,0.240678 0.37278,0.386566 0.22058,0.15695 0.32693,0.293591 0.26048,0.334659 -0.0764,0.04725 -0.0556,0.175462 0.0654,0.401653 0.0977,0.182734 0.18309,0.566347 0.1897,0.852473 0.007,0.286126 0.049,0.625576 0.0942,0.754332 0.065,0.185075 0.0439,0.234104 -0.10048,0.234104 -0.16034,0 -0.17567,0.07691 -0.12554,0.629824 0.0408,0.449682 0.0229,0.618418 -0.0625,0.589945 -0.0658,-0.02193 -0.20761,0.07197 -0.31514,0.208675 -0.19233,0.244523 -0.19187,0.252419 0.0284,0.48692 0.1978,0.21056 0.20547,0.253682 0.0657,0.369668 -0.087,0.07222 -0.22902,0.104123 -0.31559,0.0709 -0.20432,-0.07841 -0.20205,0.135134 0.005,0.430152 0.22686,0.32391 -0.0142,0.31178 -0.51158,-0.0257 -0.27966,-0.189789 -0.37866,-0.217846 -0.37866,-0.10731 0,0.0903 -0.0619,0.12591 -0.15607,0.0898 -0.11744,-0.0451 -0.15606,0.0177 -0.15606,0.25364 0,0.25457 -0.0364,0.304 -0.19375,0.26286 -0.13353,-0.0349 -0.21135,0.0166 -0.25036,0.16581 -0.0311,0.11906 -0.13122,0.21648 -0.22241,0.21648 -0.0964,0 -0.1658,0.0871 -0.1658,0.20809 0,0.11445 -0.0437,0.20809 -0.097,0.20809 -0.0534,0 -0.12675,0.0936 -0.16307,0.20809 -0.0363,0.11445 -0.12743,0.20809 -0.20247,0.20809 -0.075,0 -0.19677,0.15217 -0.27053,0.33815 -0.24406,0.61543 -0.32085,0.64248 -0.52559,0.18516 -0.10324,-0.23059 -0.23355,-0.41926 -0.28959,-0.41926 -0.056,0 -0.12262,-0.10535 -0.14794,-0.23411 l -0.0461,-0.2341 -0.0774,0.2341 c -0.0425,0.12876 -0.11026,0.23411 -0.15046,0.23411 -0.0402,0 -0.13685,0.2341 -0.21476,0.52023 -0.081,0.29756 -0.2018,0.52023 -0.28217,0.52023 -0.0773,0 -0.16747,0.0702 -0.20041,0.15607 -0.0821,0.21399 -0.24534,0.19682 -0.24729,-0.026 -0.001,-0.14953 -0.0185,-0.15537 -0.0961,-0.0327 -0.0783,0.1238 -0.1226,0.12607 -0.2585,0.0133 -0.14054,-0.11663 -0.16399,-0.10452 -0.16399,0.0847 0,0.12693 -0.0664,0.22083 -0.15606,0.22083 -0.0858,0 -0.15606,0.0702 -0.15606,0.15607 0,0.24241 -0.19986,0.18391 -0.3273,-0.0958 -0.0675,-0.14821 -0.17367,-0.22928 -0.25788,-0.19696 -0.0849,0.0326 -0.14311,-0.0131 -0.14311,-0.11228 0,-0.22288 -0.0601,-0.21116 -0.33693,0.0657 -0.2264,0.22641 -0.23394,0.22713 -0.2702,0.026 -0.0205,-0.1138 -0.0771,-0.24884 -0.12561,-0.30011 -0.0486,-0.0513 -0.0616,-0.22684 -0.0289,-0.39017 0.0372,-0.18581 0.0156,-0.29696 -0.0577,-0.29696 -0.0644,0 -0.11704,0.14771 -0.11704,0.32826 0,0.31447 -0.008,0.32084 -0.19523,0.15158 -0.18088,-0.16371 -0.20008,-0.16404 -0.26133,-0.004 -0.0434,0.11297 -0.11045,0.14082 -0.19493,0.0809 -0.0709,-0.0503 -0.22245,-0.0899 -0.3369,-0.088 -0.12285,0.002 -0.25788,-0.10384 -0.32968,-0.25847 -0.12148,-0.26164 -0.12161,-0.26156 -0.13005,0.0824 -0.0101,0.41318 -0.17232,0.35399 -0.27185,-0.0992 -0.0509,-0.23188 -0.0962,-0.28449 -0.15841,-0.1839 -0.12987,0.21014 -0.22053,0.057 -0.28032,-0.47341 -0.0476,-0.42263 -0.0687,-0.45449 -0.19257,-0.29126 -0.12924,0.17031 -0.13932,0.16671 -0.14239,-0.0508 -0.004,-0.28756 -0.11984,-0.30056 -0.28739,-0.0322 -0.14734,0.23594 -0.54503,0.24318 -0.55529,0.0101 -0.005,-0.10397 -0.0465,-0.078 -0.11994,0.0742 -0.16128,0.33443 -0.28866,0.2891 -0.29234,-0.10404 -0.003,-0.30445 -0.0147,-0.31741 -0.11939,-0.13006 -0.16837,0.30147 -0.1697,0.30208 -0.34311,0.15816 -0.13522,-0.11223 -0.15858,-0.0914 -0.15858,0.14124 0,0.43478 -0.19417,0.3162 -0.32353,-0.19758 -0.10857,-0.43119 -0.13094,-0.45506 -0.26814,-0.28613 -0.10784,0.13279 -0.16474,0.14819 -0.20356,0.0551 -0.0408,-0.0978 -0.10636,-0.10113 -0.26934,-0.0139 -0.18151,0.0971 -0.2053,0.0888 -0.15094,-0.0529 0.0699,-0.18217 -0.0838,-0.23433 -0.18904,-0.0641 -0.0354,0.0572 -0.10703,0.10404 -0.15927,0.10404 -0.0522,0 0.0208,-0.21766 0.1622,-0.4837 0.27363,-0.51465 0.34428,-0.935011 0.13545,-0.805944 -0.0831,0.05138 -0.0995,0.01728 -0.0516,-0.107571 0.0386,-0.100542 0.10036,-0.303203 0.13729,-0.450359 0.0552,-0.219821 0.0365,-0.255806 -0.10448,-0.201691 -0.22164,0.08505 -0.21632,0.02313 0.0277,-0.321989 0.42437,-0.600281 0.35563,-1.039618 -0.0767,-0.490005 -0.24733,0.314452 -0.33071,0.327567 -0.33071,0.05202 0,-0.11445 -0.0468,-0.208092 -0.10404,-0.208092 -0.0572,0 -0.10404,0.09364 -0.10404,0.208092 0,0.233388 -0.10763,0.266932 -0.28555,0.089 -0.0894,-0.08943 -0.13629,-0.05055 -0.18815,0.156069 -0.0829,0.330416 -0.21513,0.355273 -0.30942,0.05818 -0.0687,-0.216375 -0.0696,-0.216302 -0.3358,0.02601 -0.24069,0.21912 -0.25852,0.22255 -0.1814,0.03491 0.047,-0.11445 0.10397,-0.395374 0.12653,-0.624275 l 0.041,-0.416183 -0.21161,0.260115 c -0.28571,0.351218 -0.26984,0.215905 0.0439,-0.374152 0.27222,-0.512011 0.32629,-0.923104 0.15606,-1.186536 -0.0811,-0.125559 -0.10117,-0.109104 -0.10245,0.08418 -8.8e-4,0.133372 -0.0479,0.211638 -0.10563,0.17594 -0.0572,-0.03537 -0.10404,-0.178592 -0.10404,-0.318278 0,-0.139686 -0.0468,-0.253974 -0.10404,-0.253974 -0.0572,0 -0.10404,0.04682 -0.10404,0.104046 0,0.05723 -0.0468,0.104045 -0.10404,0.104045 -0.0572,0 -0.10405,-0.06876 -0.10405,-0.152803 0,-0.100123 -0.06,-0.129766 -0.17412,-0.08598 -0.13854,0.05317 -0.15831,0.02592 -0.0967,-0.133323 0.16836,-0.435533 0.16115,-0.738269 -0.0271,-1.136556 l -0.19669,-0.416183 -0.12354,0.310575 c -0.0679,0.170816 -0.19966,0.471006 -0.29271,0.667089 l -0.16917,0.356515 -0.11857,-0.352196 -0.11858,-0.352195 -0.0697,0.348398 c -0.0383,0.191619 -0.0697,0.459597 -0.0697,0.595507 0,0.13591 -0.0468,0.247109 -0.10404,0.247109 -0.0572,0 -0.10404,-0.124855 -0.10404,-0.277456 0,-0.152601 -0.0305,-0.246991 -0.0677,-0.209757 -0.0372,0.03723 -0.16973,-0.15395 -0.29443,-0.424854 l -0.22674,-0.492552 -0.17369,0.36506 c -0.13641,0.28672 -0.15137,0.442867 -0.0697,0.727634 0.13511,0.471143 0.13507,1.66452 -7e-5,1.66452 -0.0572,0 -0.10475,-0.105346 -0.10563,-0.234103 -0.001,-0.169942 -0.026,-0.195637 -0.0905,-0.09375 -0.0618,0.09756 -0.11126,0.01826 -0.16216,-0.260114 -0.0796,-0.435261 -0.316,-0.86867 -0.47382,-0.86867 -0.0621,0 -0.0612,0.09957 0.002,0.266888 0.12999,0.341931 0.12906,0.490768 -0.003,0.40941 -0.0628,-0.03881 -0.1074,0.113465 -0.11253,0.384031 l -0.008,0.448335 -0.14788,-0.338149 c -0.30988,-0.708638 -0.28784,-0.275412 0.0357,0.70231 0.20335,0.614449 0.99766,2.217919 1.29742,2.619109 0.12993,0.17389 0.52885,0.63101 0.88649,1.01581 0.50384,0.54211 0.65025,0.7714 0.65025,1.01833 0,0.1829 0.0645,0.34344 0.15136,0.37677 0.16363,0.0628 0.55207,0.76328 0.69004,1.24438 0.0469,0.16372 0.0941,0.9376 0.1048,1.71972 0.0238,1.74364 0.14102,2.70073 0.47987,3.91913 0.14323,0.51503 0.37477,1.38121 0.51453,1.92485 0.3473,1.35098 0.49911,1.90516 0.75531,2.75721 0.12045,0.40058 0.28689,1.00925 0.36987,1.3526 0.92115,3.81161 1.2411,5.02904 1.51867,5.77879 0.17922,0.48407 0.35923,1.06974 0.40003,1.30147 0.0408,0.23173 0.36394,0.97303 0.71809,1.64733 0.35414,0.6743 0.64287,1.35088 0.64161,1.50352 -0.003,0.34608 -0.32121,1.06048 -0.56105,1.25899 -0.0991,0.082 -0.26803,0.32137 -0.37544,0.53192 -0.34089,0.66824 -1.0952,0.87832 -2.02282,0.56337 -0.43973,-0.1493 -0.51787,-0.14603 -1.146,0.048 -0.5786,0.17872 -0.89176,0.20247 -2.21077,0.16762 -0.84518,-0.0223 -1.6407,-0.0724 -1.76783,-0.11138 -0.18363,-0.0562 -0.25656,-0.015 -0.35483,0.20069 -0.16285,0.35743 -0.28919,0.34339 -0.36599,-0.0406 z"
     id="path5"
     inkscape:label="emu_trace" />
  <text
     xml:space="preserve"
     id="text5"
     style="font-size:22px;line-height:1.15;letter-spacing:-0.13px;white-space:pre;shape-inside:url(#rect5);display:inline;fill:#4d4d4d;fill-opacity:1;stroke:none;stroke-width:3.77953;stroke-linejoin:round;stroke-dasharray:none;stroke-opacity:1"
     transform="translate(-200.00812,51.197053)"
     inkscape:label="newtext"><tspan
       x="209.81836"
       y="36.024913"
       id="tspan2"><tspan
         style="font-family:'Gene Serif';-inkscape-font-specification:'Gene Serif'"
         id="tspan1">Trial
</tspan></tspan><tspan
       x="209.81836"
       y="61.993793"
       id="tspan4"><tspan
         style="font-family:'Gene Serif';-inkscape-font-specification:'Gene Serif'"
         id="tspan3">Emulation</tspan></tspan></text>
</svg>
